<svg xmlns="http://www.w3.org/2000/svg" width="15.516" height="14.546" viewBox="0 0 15.516 14.546"><defs><style>.a{fill:#fff;}</style></defs><g transform="translate(-17.066 -2.164)"><g transform="translate(17.066 10.742)"><g transform="translate(0)"><path class="a" d="M31.986,307.2a.6.6,0,0,0-.6.6v3.581a.6.6,0,0,1-.6.6H18.856a.6.6,0,0,1-.6-.6V307.8a.6.6,0,1,0-1.194,0v3.581a1.79,1.79,0,0,0,1.79,1.79H30.792a1.79,1.79,0,0,0,1.79-1.79V307.8A.6.6,0,0,0,31.986,307.2Z" transform="translate(-17.066 -307.2)"/></g></g><g transform="translate(21.251)"><path class="a" d="M143.708,10.32a.6.6,0,0,0-.829,0l-1.966,1.965-.037-9.525a.6.6,0,1,0-1.194,0l.037,9.525-1.965-1.965a.6.6,0,0,0-.844.844l2.984,2.984a.6.6,0,0,0,.844,0h0l2.984-2.984A.6.6,0,0,0,143.708,10.32Z" transform="translate(-136.742)"/></g></g></svg>