<svg xmlns="http://www.w3.org/2000/svg" width="25" height="25" viewBox="0 0 25 25"><defs><style>.a{fill:rgba(255,255,255,0);}.b,.c{fill:none;stroke-linecap:round;stroke-miterlimit:10;stroke-width:2px;}.b{stroke:#bfbfbf;}.c{stroke:#b7b9ba;}</style></defs><g transform="translate(-1095 -345)"><rect class="a" width="25" height="25" transform="translate(1095 345)"/><g transform="translate(1099.424 349.373)"><path class="b" d="M0,0A4.064,4.064,0,0,1,2.285,2.285" transform="translate(14.573 14.736)"/><path class="c" d="M8.632,13.594l1.57-1.57a3.563,3.563,0,0,1,4.353-.536l.2.121a1.627,1.627,0,0,1,.077,2.741l-1,.681a2.612,2.612,0,0,1-2.5.24,23.126,23.126,0,0,1-6.518-4.54,17.381,17.381,0,0,1-4.66-6.57,2.612,2.612,0,0,1,.3-2.354L1.2.713A1.627,1.627,0,0,1,3.937.79l.121.2a3.563,3.563,0,0,1-.536,4.353l-1.57,1.57" transform="translate(0 0)"/></g></g></svg>