<svg xmlns="http://www.w3.org/2000/svg" width="20" height="20" viewBox="0 0 20 20"><defs><style>.a{fill:#fff;}</style></defs><path class="a" d="M18.74-65.059a10.074,10.074,0,0,0,10-10,10.076,10.076,0,0,0-10.01-10,10.066,10.066,0,0,0-9.99,10A10.081,10.081,0,0,0,18.74-65.059Zm0-1.667a8.293,8.293,0,0,1-8.324-8.333,8.285,8.285,0,0,1,8.314-8.333,8.316,8.316,0,0,1,8.343,8.333A8.3,8.3,0,0,1,18.74-66.725Zm5.029-8.343a.763.763,0,0,0-.275-.569l-3.314-3.324a.7.7,0,0,0-.51-.2.691.691,0,0,0-.706.706.723.723,0,0,0,.216.52l1.225,1.216,1.186.99L19.525-75.8H14.407a.716.716,0,0,0-.735.735.716.716,0,0,0,.735.735h5.118l2.069-.078-1.186,1-1.225,1.206a.724.724,0,0,0-.216.529.705.705,0,0,0,.706.716.71.71,0,0,0,.51-.206L23.5-74.49A.771.771,0,0,0,23.77-75.068Z" transform="translate(-8.74 85.059)"/></svg>