<svg xmlns="http://www.w3.org/2000/svg" width="18" height="18" viewBox="0 0 18 18"><defs><style>.a{fill:#8496a5;}.b{fill:none;}</style></defs><g transform="translate(-1233 -196)"><g transform="translate(28 -1)"><path class="a" d="M3.628,1.549a1,1,0,0,1,1.743,0l2.79,4.96A1,1,0,0,1,7.29,8H1.71A1,1,0,0,1,.838,6.51Z" transform="translate(1210 197)"/><path class="a" d="M3.628,1.549a1,1,0,0,1,1.743,0l2.79,4.96A1,1,0,0,1,7.29,8H1.71A1,1,0,0,1,.838,6.51Z" transform="translate(1219 215) rotate(180)"/></g><rect class="b" width="18" height="18" transform="translate(1233 196)"/></g></svg>