<svg xmlns="http://www.w3.org/2000/svg" width="20" height="20" viewBox="0 0 20 20"><defs><style>.a,.c{fill:none;}.b{fill:#fff;}.c{stroke:#fff;stroke-linecap:round;stroke-miterlimit:10;stroke-width:1.3px;}</style></defs><rect class="a" width="20" height="20"/><g transform="translate(1.581 1.303)"><path class="b" d="M.652,0H5.865l.652,1.955L5.334,1.364a.326.326,0,0,0-.249-.018l-1.827.609L1.431,1.346a.326.326,0,0,0-.249.018L0,1.955Z" transform="translate(4.936 0.652)"/><path class="c" d="M.03,3.876A3.423,3.423,0,0,1,3.424,0h0A3.423,3.423,0,0,1,6.817,3.876L6.375,7.191A2.977,2.977,0,0,1,3.424,9.775h0A2.977,2.977,0,0,1,.472,7.191Z" transform="translate(4.771)"/><path class="c" d="M4.71,0,1.659.763A1.3,1.3,0,0,0,.683,1.855l-.24,1.8A1.955,1.955,0,0,0,2.381,5.865h9.5" transform="translate(-0.426 11.078)"/><g transform="translate(10.851 10.624)"><path class="c" d="M.08.372A.326.326,0,0,1,.4,0H6.168A.326.326,0,0,1,6.49.372L6.052,3.443a1.3,1.3,0,0,1-1.29,1.119H1.809A1.3,1.3,0,0,1,.518,3.443Z" transform="translate(-0.076 2.409)"/><path class="c" d="M0,3.212,1.413,1.093a.652.652,0,0,1,1.084,0L3.91,3.212" transform="translate(1.254 -0.803)"/></g></g></svg>