<svg xmlns="http://www.w3.org/2000/svg" width="20" height="20" viewBox="0 0 20 20"><defs><style>.a,.b{fill:none;}.b{stroke:#8496a5;stroke-linecap:round;stroke-miterlimit:10;stroke-width:1.3px;}</style></defs><rect class="a" width="20" height="20"/><g transform="translate(1.333 1.333)"><ellipse class="b" cx="5.5" cy="2" rx="5.5" ry="2" transform="translate(-0.333 -0.333)"/><path class="b" d="M0,0C0,1.1,2.475,2,5.528,2a11.922,11.922,0,0,0,3.917-.589" transform="translate(-0.333 15.333)"/><path class="b" d="M0,0C0,1.1,2.388,2,5.333,2a13.5,13.5,0,0,0,1.9-.13" transform="translate(-0.333 11.333)"/><path class="b" d="M0,0C0,1.1,2.462,2,5.5,2S11,1.1,11,0" transform="translate(-0.333 6.667)"/><path class="b" d="M.5,0V13.333" transform="translate(-0.833 2)"/><path class="b" d="M.5,0V5.667" transform="translate(10.167 2)"/><g transform="translate(7.333 7.333)"><circle class="b" cx="5" cy="5" r="5" transform="translate(0.333 0.333)"/><circle class="b" cx="2" cy="2" r="2" transform="translate(3.333 3.333)"/></g></g></svg>