<svg xmlns="http://www.w3.org/2000/svg" width="20" height="20" viewBox="0 0 20 20"><defs><style>.a,.b{fill:none;}.b{stroke:#8496a5;stroke-linecap:round;stroke-miterlimit:10;stroke-width:1.3px;}</style></defs><rect class="a" width="20" height="20" transform="translate(0 0)"/><g transform="translate(1.333 1.333)"><path class="b" d="M0,0H14.667l-.525,6.82a2,2,0,0,1-1.994,1.847H2.519A2,2,0,0,1,.525,6.82Z" transform="translate(1.333 8.667)"/><rect class="b" width="18" height="4" rx="1" transform="translate(-0.333 4.667)"/><path class="b" d="M-5.4,4.667C-6.725,4.667-9,2.333-9,2.333S-6.725,0-5.4,0A2.367,2.367,0,0,1-3,2.333,2.367,2.367,0,0,1-5.4,4.667Z" transform="translate(17.667)"/><path class="b" d="M2.4,4.667C3.725,4.667,6,2.333,6,2.333S3.725,0,2.4,0A2.367,2.367,0,0,0,0,2.333,2.367,2.367,0,0,0,2.4,4.667Z" transform="translate(2.667)"/></g></svg>