<svg xmlns="http://www.w3.org/2000/svg" width="259.655" height="58.185" viewBox="0 0 259.655 58.185"><defs><style>.a{fill:#ff7f32;}.b{fill:#1b365d;}</style></defs><g transform="translate(1792.542 -4433.779)"><path class="a" d="M2466.992,288.372a3.835,3.835,0,1,0,3.841,3.831A3.841,3.841,0,0,0,2466.992,288.372Zm0,7.012a3.187,3.187,0,1,1,3.17-3.181A3.17,3.17,0,0,1,2466.992,295.384Z" transform="translate(-4003.721 4162.621)"/><g transform="translate(-1792.542 4433.779)"><g transform="translate(76.473 10.742)"><path class="a" d="M2467.656,290.658c0-.7-.552-1.287-1.58-1.287a2.449,2.449,0,0,0-1.137.248v4.241h.715v-1.893h.1l1.267,1.893h.886l-1.386-1.957A1.241,1.241,0,0,0,2467.656,290.658Zm-2,.823V290.02a1.187,1.187,0,0,1,.366-.055c.412,0,.9.12.9.7,0,.616-.389.812-.994.812Z" transform="translate(-2286.784 -281.415)"/><path class="a" d="M2441.171,294.152a6.409,6.409,0,0,0-5.542,2.771h-.066V284.013h-6.15v28.049h6.15v-8.887c0-2.028.775-4.123,3.21-4.123,2.466,0,2.77,2.1,2.77,4.123v8.887h6.151V301.451C2447.694,297.058,2445.564,294.152,2441.171,294.152Z" transform="translate(-2304.011 -284.013)"/><path class="a" d="M2446.9,284.423a3.447,3.447,0,1,0,3.448,3.448A3.462,3.462,0,0,0,2446.9,284.423Z" transform="translate(-2297.201 -283.814)"/><rect class="a" width="6.151" height="17.336" transform="translate(146.626 10.713)"/><path class="a" d="M2461.481,290.841a6.158,6.158,0,0,0-5.238,2.535h-.068v-1.96h-6.15V317.4h6.15V307.1a7.1,7.1,0,0,0,5.373,2.23c5.136,0,8.686-4.19,8.686-9.191C2470.234,295.166,2466.651,290.841,2461.481,290.841Zm-1.555,13.146a3.705,3.705,0,0,1-3.952-3.886,3.954,3.954,0,0,1,7.907,0A3.706,3.706,0,0,1,2459.926,303.987Z" transform="translate(-2294.016 -280.702)"/><path class="a" d="M2427.682,295.893l-1.691-.506c-1.148-.373-2.942-.947-2.942-2.435,0-1.421,1.625-2.131,2.841-2.131a6.973,6.973,0,0,1,4.4,1.691l2.636-5.141a17.423,17.423,0,0,0-7.981-2.1c-5.105,0-8.792,3.381-8.792,8.556,0,4.937,2.739,6.02,6.9,7.2,1.42.405,4.025,1.048,4.025,2.909,0,1.792-1.657,2.57-3.213,2.57a9.1,9.1,0,0,1-5.885-2.639l-2.84,5.344a15.731,15.731,0,0,0,8.961,2.909,11.19,11.19,0,0,0,7.239-2.4c2.028-1.724,2.637-4.328,2.637-6.865C2433.972,298.734,2431.233,296.942,2427.682,295.893Z" transform="translate(-2310.933 -283.401)"/><path class="b" d="M2382.733,290.841a6.618,6.618,0,0,0-5.879,3.311,6.349,6.349,0,0,0-5.915-3.311,6.421,6.421,0,0,0-5.476,2.737h-.067v-2.162h-6.151v17.336h6.151v-8.28c0-1.926,0-4.866,2.738-4.866s2.736,2.94,2.736,4.866v8.28h6.151v-8.28c0-2.061.1-4.731,2.94-4.731,2.6,0,2.533,2.94,2.533,4.731v8.28h6.151V297.7C2388.646,293.714,2387.126,290.841,2382.733,290.841Z" transform="translate(-2338.032 -280.702)"/><path class="b" d="M2394.079,293.105a7.075,7.075,0,0,0-5.374-2.264c-5.137,0-8.685,4.259-8.685,9.225s3.616,9.26,8.753,9.26a6.085,6.085,0,0,0,5.237-2.5h.069v1.926h6.149V291.416h-6.149Zm-3.753,10.881a3.706,3.706,0,0,1-3.952-3.886,3.954,3.954,0,0,1,7.907,0A3.707,3.707,0,0,1,2390.326,303.987Z" transform="translate(-2327.959 -280.702)"/><path class="b" d="M2401.836,294.144h-.068v-2.839h-6.152v17.336h6.152v-7c0-2.974.844-5.237,4.258-5.237a4.991,4.991,0,0,1,2.6.573v-5.913h-1.182A6.022,6.022,0,0,0,2401.836,294.144Z" transform="translate(-2320.396 -280.592)"/><path class="b" d="M2414.123,287.723h-6.15v5.2h-1.994V298h1.994v12.267h6.15V298h3.481v-5.069h-3.481Z" transform="translate(-2315.373 -282.214)"/><path class="b" d="M2357.5,295.893l-1.69-.506c-1.151-.373-2.942-.947-2.942-2.435,0-1.421,1.624-2.131,2.841-2.131a6.962,6.962,0,0,1,4.395,1.691l2.638-5.141a17.425,17.425,0,0,0-7.981-2.1c-5.106,0-8.792,3.381-8.792,8.556,0,4.937,2.739,6.02,6.9,7.2,1.421.405,4.025,1.048,4.025,2.909,0,1.792-1.658,2.57-3.214,2.57a9.09,9.09,0,0,1-5.884-2.639l-2.841,5.344a15.73,15.73,0,0,0,8.961,2.909,11.185,11.185,0,0,0,7.237-2.4c2.03-1.724,2.641-4.328,2.641-6.865C2363.8,298.734,2361.057,296.942,2357.5,295.893Z" transform="translate(-2344.959 -283.401)"/></g><g transform="translate(0 0)"><path class="b" d="M2324.538,305.5l-14.608-8.776-16.473,9.894,31.08,18.672,31.08-18.672-16.471-9.895Z" transform="translate(-2293.458 -267.107)"/><path class="b" d="M2324.538,296.569l14.609,8.777,16.47-9.9-31.079-18.671-31.08,18.672,16.472,9.895Z" transform="translate(-2293.458 -276.779)"/><path class="a" d="M2307.293,299.082l-13.815-8.3v16.6Z" transform="translate(-2293.449 -269.989)"/><path class="a" d="M2339.812,307.381v-16.6l-13.814,8.3Z" transform="translate(-2277.681 -269.989)"/></g></g></g></svg>