<svg xmlns="http://www.w3.org/2000/svg" width="145.4" height="32.47" viewBox="0 0 145.4 32.47"><defs><style>.a{fill:#1b365d;}.b{fill:#fff;}</style></defs><g transform="translate(0 0)"><g transform="translate(43.11 7.04)"><path class="a" d="M2137,292.364h.038a3.582,3.582,0,0,1,3.056-1.527,3.54,3.54,0,0,1,3.3,1.848,3.7,3.7,0,0,1,3.281-1.848c2.452,0,3.3,1.6,3.3,3.828v6.167h-3.432v-4.621c0-1,.038-2.64-1.414-2.64-1.584,0-1.641,1.49-1.641,2.64v4.621h-3.433v-4.621c0-1.075,0-2.716-1.527-2.716s-1.528,1.641-1.528,2.716v4.621h-3.432v-9.674H2137Z" transform="translate(-2121.733 -286.225)"/><path class="a" d="M2165.553,300.832h-3.433v-1.075h-.037a3.4,3.4,0,0,1-2.924,1.4,5.167,5.167,0,0,1-.038-10.316,3.945,3.945,0,0,1,3,1.264v-.943h3.433ZM2157.821,296a2.207,2.207,0,0,0,4.412,0,2.206,2.206,0,0,0-4.412,0Z" transform="translate(-2125.221 -286.225)"/><path class="a" d="M2173.251,292.78h.038a3.36,3.36,0,0,1,3.131-1.716h.659v3.3a2.774,2.774,0,0,0-1.452-.321c-1.905,0-2.376,1.264-2.376,2.923v3.9h-3.432V291.2h3.432Z" transform="translate(-2127.841 -286.263)"/><path class="a" d="M2184.69,300.309h-3.432v-6.846h-1.112v-2.829h1.112v-2.9h3.432v2.9h1.943v2.829h-1.943Z" transform="translate(-2129.581 -285.701)"/><path class="a" d="M2127.789,289.328a3.89,3.89,0,0,0-2.454-.944c-.679,0-1.585.4-1.585,1.189,0,.831,1,1.151,1.642,1.359l.944.284c1.982.585,3.51,1.585,3.51,3.887a4.832,4.832,0,0,1-1.472,3.832,6.245,6.245,0,0,1-4.039,1.34,8.786,8.786,0,0,1-5-1.623l1.586-2.983a5.073,5.073,0,0,0,3.283,1.473c.869,0,1.793-.434,1.793-1.434,0-1.039-1.453-1.4-2.246-1.624-2.321-.66-3.849-1.264-3.849-4.019a4.612,4.612,0,0,1,4.906-4.774,9.721,9.721,0,0,1,4.453,1.17Z" transform="translate(-2119.333 -285.29)"/></g><g transform="translate(101.262 5.995)"><path class="b" d="M2239.341,292.657a2.14,2.14,0,1,1,2.144-2.144A2.144,2.144,0,0,1,2239.341,292.657Zm0-3.925a1.778,1.778,0,1,0,1.77,1.781A1.778,1.778,0,0,0,2239.341,288.733Zm.435,2.977-.706-1.057h-.055v1.057h-.4v-2.366a1.364,1.364,0,0,1,.634-.139c.573,0,.882.326.882.718a.692.692,0,0,1-.634.694l.773,1.093Zm-.555-2.173a.7.7,0,0,0-.205.03v.816h.151c.338,0,.555-.109.555-.453C2239.722,289.6,2239.45,289.536,2239.22,289.536Z" transform="translate(-2197.347 -284.765)"/><path class="b" d="M2206.93,284.033v7.2h.038a3.573,3.573,0,0,1,3.092-1.547c2.452,0,3.641,1.622,3.641,4.073v5.922h-3.432v-4.96c0-1.132-.17-2.3-1.547-2.3-1.357,0-1.791,1.169-1.791,2.3v4.96H2203.5V284.033Z" transform="translate(-2191.668 -284.033)"/><path class="b" d="M2221.341,286.365a1.924,1.924,0,1,1-1.923-1.924A1.931,1.931,0,0,1,2221.341,286.365Zm-.207,13.389H2217.7V290.08h3.433Z" transform="translate(-2194.027 -284.102)"/><path class="b" d="M2227.473,292.251h.038a3.434,3.434,0,0,1,2.923-1.414,4.979,4.979,0,0,1,4.885,5.186,4.9,4.9,0,0,1-4.847,5.13,3.958,3.958,0,0,1-3-1.246v5.752h-3.432v-14.5h3.432ZM2227.36,296a2.207,2.207,0,0,0,4.414,0,2.207,2.207,0,0,0-4.414,0Z" transform="translate(-2195.13 -285.179)"/><path class="b" d="M2197.725,289.328a3.889,3.889,0,0,0-2.453-.944c-.679,0-1.586.4-1.586,1.189,0,.831,1,1.151,1.642,1.359l.943.284c1.982.585,3.511,1.585,3.511,3.887a4.833,4.833,0,0,1-1.472,3.832,6.244,6.244,0,0,1-4.04,1.34,8.784,8.784,0,0,1-5-1.623l1.585-2.983a5.074,5.074,0,0,0,3.284,1.473c.868,0,1.793-.434,1.793-1.434,0-1.039-1.454-1.4-2.246-1.624-2.322-.66-3.85-1.264-3.85-4.019a4.612,4.612,0,0,1,4.907-4.774,9.73,9.73,0,0,1,4.454,1.17Z" transform="translate(-2189.271 -284.245)"/></g><path class="a" d="M2103.151,287.535l-17.832-10.712-17.831,10.712v0l9.19,5.521-9.19,5.522h0l17.831,10.713,17.832-10.713h0l-9.191-5.522,9.191-5.521Zm-17.832,10.715-8.641-5.192,8.641-5.191,8.641,5.191Z" transform="translate(-2067.487 -276.823)"/><path class="b" d="M2067.487,289.708v11.043l9.191-5.521Z" transform="translate(-2067.487 -278.994)"/><path class="b" d="M2108.516,300.751V289.708l-9.191,5.521Z" transform="translate(-2072.852 -278.994)"/></g></svg>