<svg xmlns="http://www.w3.org/2000/svg" width="13.611" height="16.362" viewBox="0 0 13.611 16.362"><defs><style>.a{fill:#fff;}</style></defs><g transform="translate(-1322.522 -2905)"><path class="a" d="M1336.1,2918.771l-1.1-1.913a5.641,5.641,0,0,1-.76-2.985v-1.724a4.858,4.858,0,0,0-3.818-4.615v-1.445a1.091,1.091,0,0,0-2.182,0v1.445a4.858,4.858,0,0,0-3.818,4.615v1.724a5.649,5.649,0,0,1-.763,2.99l-1.1,1.909a.272.272,0,0,0,.237.408h13.066a.272.272,0,0,0,.236-.408Z" transform="translate(0 0)"/><path class="a" d="M1333.627,2933.636a1.649,1.649,0,0,0,1.646-1.636h-3.294A1.649,1.649,0,0,0,1333.627,2933.636Z" transform="translate(-4.299 -12.274)"/></g></svg>