<svg xmlns="http://www.w3.org/2000/svg" width="19.666" height="18.892" viewBox="0 0 19.666 18.892"><defs><style>.a{fill:none;stroke:#8496a5;stroke-linecap:round;stroke-miterlimit:10;stroke-width:2px;}</style></defs><g transform="translate(0.835 0.262)"><path class="a" d="M.2,7.38a.064.064,0,0,0,.041.114h2.31a.064.064,0,0,1,.064.064V15.2a1.921,1.921,0,0,0,1.914,1.927h8.933A1.921,1.921,0,0,0,15.379,15.2V7.558a.064.064,0,0,1,.064-.064h2.31a.064.064,0,0,0,.041-.114L9.4.44a.635.635,0,0,0-.81,0Z" transform="translate(0 0.5)"/></g></svg>