<svg xmlns="http://www.w3.org/2000/svg" width="20" height="20" viewBox="0 0 20 20"><defs><style>.a,.b{fill:none;}.b{stroke:#8496a5;stroke-linecap:round;stroke-miterlimit:10;stroke-width:1.3px;}</style></defs><rect class="a" width="20" height="20"/><g transform="translate(1.333 1.333)"><circle class="b" cx="2" cy="2" r="2" transform="translate(1.667 13.667)"/><circle class="b" cx="2" cy="2" r="2" transform="translate(11.667 13.667)"/><path class="b" d="M0,0H2.431A1.333,1.333,0,0,1,3.669.838l.9,2.257a1.333,1.333,0,0,1,.1.5V8A1.333,1.333,0,0,1,3.333,9.333H2.667" transform="translate(12.667 5.333)"/><path class="b" d="M0,10.667V2A2,2,0,0,1,2,0h8.667a2,2,0,0,1,2,2V8.667a2,2,0,0,1-2,2H0v2.667a1.333,1.333,0,0,0,1.333,1.333H2"/><path class="b" d="M.5.5H5.833" transform="translate(5.5 14.167)"/></g></svg>